<mxfile host="app.diagrams.net" modified="2023-11-25T02:36:37.685Z" agent="Mozilla/5.0 (Windows NT 10.0; Win64; x64) AppleWebKit/537.36 (KHTML, like Gecko) Chrome/119.0.0.0 Safari/537.36" etag="aKop_vX9clkkvIMykO9u" version="22.1.4" type="device">
  <diagram name="Page-1" id="p5Ze_5HZYm8lclxgXZm5">
    <mxGraphModel dx="2501" dy="750" grid="1" gridSize="10" guides="1" tooltips="1" connect="1" arrows="1" fold="1" page="1" pageScale="1" pageWidth="827" pageHeight="1169" math="0" shadow="0">
      <root>
        <mxCell id="0" />
        <mxCell id="1" parent="0" />
        <mxCell id="6RPi8WPYJTajB4reOex2-20" style="edgeStyle=orthogonalEdgeStyle;rounded=0;orthogonalLoop=1;jettySize=auto;html=1;exitX=0.5;exitY=1;exitDx=0;exitDy=0;" edge="1" parent="1" source="6RPi8WPYJTajB4reOex2-14" target="6RPi8WPYJTajB4reOex2-19">
          <mxGeometry relative="1" as="geometry" />
        </mxCell>
        <mxCell id="6RPi8WPYJTajB4reOex2-14" value="" style="rounded=0;whiteSpace=wrap;html=1;" vertex="1" parent="1">
          <mxGeometry x="-10" y="40" width="200" height="120" as="geometry" />
        </mxCell>
        <mxCell id="6RPi8WPYJTajB4reOex2-8" style="edgeStyle=orthogonalEdgeStyle;rounded=0;orthogonalLoop=1;jettySize=auto;html=1;exitX=1;exitY=0.5;exitDx=0;exitDy=0;entryX=0;entryY=0.5;entryDx=0;entryDy=0;" edge="1" parent="1" source="6RPi8WPYJTajB4reOex2-1" target="6RPi8WPYJTajB4reOex2-7">
          <mxGeometry relative="1" as="geometry" />
        </mxCell>
        <mxCell id="6RPi8WPYJTajB4reOex2-1" value="Cliente" style="rounded=0;whiteSpace=wrap;html=1;" vertex="1" parent="1">
          <mxGeometry x="-390" y="70" width="120" height="60" as="geometry" />
        </mxCell>
        <mxCell id="6RPi8WPYJTajB4reOex2-9" style="edgeStyle=orthogonalEdgeStyle;rounded=0;orthogonalLoop=1;jettySize=auto;html=1;exitX=0;exitY=0.5;exitDx=0;exitDy=0;entryX=1;entryY=0.5;entryDx=0;entryDy=0;" edge="1" parent="1" source="6RPi8WPYJTajB4reOex2-2" target="6RPi8WPYJTajB4reOex2-7">
          <mxGeometry relative="1" as="geometry" />
        </mxCell>
        <mxCell id="6RPi8WPYJTajB4reOex2-2" value="Producto" style="rounded=0;whiteSpace=wrap;html=1;" vertex="1" parent="1">
          <mxGeometry x="520" y="70" width="120" height="60" as="geometry" />
        </mxCell>
        <mxCell id="6RPi8WPYJTajB4reOex2-21" style="edgeStyle=orthogonalEdgeStyle;rounded=0;orthogonalLoop=1;jettySize=auto;html=1;exitX=0.5;exitY=0;exitDx=0;exitDy=0;" edge="1" parent="1" source="6RPi8WPYJTajB4reOex2-3" target="6RPi8WPYJTajB4reOex2-19">
          <mxGeometry relative="1" as="geometry" />
        </mxCell>
        <mxCell id="6RPi8WPYJTajB4reOex2-3" value="Factura" style="rounded=0;whiteSpace=wrap;html=1;" vertex="1" parent="1">
          <mxGeometry x="30" y="420" width="120" height="60" as="geometry" />
        </mxCell>
        <mxCell id="6RPi8WPYJTajB4reOex2-7" value="" style="rhombus;whiteSpace=wrap;html=1;" vertex="1" parent="1">
          <mxGeometry x="50" y="75" width="80" height="50" as="geometry" />
        </mxCell>
        <mxCell id="6RPi8WPYJTajB4reOex2-10" value="1:N" style="text;html=1;strokeColor=none;fillColor=none;align=center;verticalAlign=middle;whiteSpace=wrap;rounded=0;" vertex="1" parent="1">
          <mxGeometry x="450" y="70" width="60" height="30" as="geometry" />
        </mxCell>
        <mxCell id="6RPi8WPYJTajB4reOex2-12" value="0:N" style="text;html=1;strokeColor=none;fillColor=none;align=center;verticalAlign=middle;whiteSpace=wrap;rounded=0;" vertex="1" parent="1">
          <mxGeometry x="-270" y="70" width="60" height="30" as="geometry" />
        </mxCell>
        <mxCell id="6RPi8WPYJTajB4reOex2-17" value="Venta" style="text;html=1;strokeColor=none;fillColor=none;align=center;verticalAlign=middle;whiteSpace=wrap;rounded=0;" vertex="1" parent="1">
          <mxGeometry x="-30" y="170" width="60" height="30" as="geometry" />
        </mxCell>
        <mxCell id="6RPi8WPYJTajB4reOex2-19" value="" style="rhombus;whiteSpace=wrap;html=1;" vertex="1" parent="1">
          <mxGeometry x="50" y="270" width="80" height="50" as="geometry" />
        </mxCell>
        <mxCell id="6RPi8WPYJTajB4reOex2-22" value="1:1" style="text;html=1;strokeColor=none;fillColor=none;align=center;verticalAlign=middle;whiteSpace=wrap;rounded=0;" vertex="1" parent="1">
          <mxGeometry x="90" y="390" width="60" height="30" as="geometry" />
        </mxCell>
        <mxCell id="6RPi8WPYJTajB4reOex2-23" value="1:1" style="text;html=1;strokeColor=none;fillColor=none;align=center;verticalAlign=middle;whiteSpace=wrap;rounded=0;" vertex="1" parent="1">
          <mxGeometry x="90" y="160" width="60" height="30" as="geometry" />
        </mxCell>
      </root>
    </mxGraphModel>
  </diagram>
</mxfile>
